<?xml version="1.0" encoding="UTF-8" standalone="no"?>
<!DOCTYPE svg PUBLIC "-//W3C//DTD SVG 1.1//EN"
 "http://www.w3.org/Graphics/SVG/1.1/DTD/svg11.dtd">
<!-- Generated by graphviz version 2.43.0 (0)
 -->
<!-- Title: G Pages: 1 -->
<svg width="2956pt" height="3589pt"
 viewBox="0.00 0.00 1064.00 1292.00" xmlns="http://www.w3.org/2000/svg" xmlns:xlink="http://www.w3.org/1999/xlink">
<g id="graph0" class="graph" transform="scale(2.78 2.78) rotate(0) translate(4 1288)">
<title>G</title>
<polygon fill="white" stroke="transparent" points="-4,4 -4,-1288 1060,-1288 1060,4 -4,4"/>
<!-- 140078762657232 -->
<g id="node1" class="node">
<title>140078762657232</title>
<polygon fill="none" stroke="black" points="392,-1200.5 392,-1283.5 658,-1283.5 658,-1200.5 392,-1200.5"/>
<polygon fill="black" stroke="transparent" points="392,-1200.5 392,-1283.5 658,-1283.5 658,-1200.5 392,-1200.5"/>
<polygon fill="black" stroke="transparent" points="394,-1241 394,-1281 656,-1281 656,-1241 394,-1241"/>
<polygon fill="none" stroke="black" points="394,-1241 394,-1281 656,-1281 656,-1241 394,-1241"/>
<text text-anchor="start" x="422.5" y="-1258.2" font-family="Helvetica,sans-Serif" font-weight="bold" font-size="16.00" fill="white">input_layer</text>
<text text-anchor="start" x="522.5" y="-1258.2" font-family="Helvetica,sans-Serif" font-size="16.00" fill="white"> (InputLayer)</text>
<polygon fill="white" stroke="transparent" points="394,-1202 394,-1239 654,-1239 654,-1202 394,-1202"/>
<polygon fill="none" stroke="black" points="394,-1202 394,-1239 654,-1239 654,-1202 394,-1202"/>
<text text-anchor="start" x="405" y="-1217.8" font-family="Helvetica,sans-Serif" font-size="14.00">Output shape: </text>
<text text-anchor="start" x="510" y="-1217.8" font-family="Helvetica,sans-Serif" font-weight="bold" font-size="14.00">(None, 22050, 1)</text>
</g>
<!-- 140078762660688 -->
<g id="node2" class="node">
<title>140078762660688</title>
<polygon fill="none" stroke="black" points="268,-1080.5 268,-1163.5 782,-1163.5 782,-1080.5 268,-1080.5"/>
<polygon fill="black" stroke="transparent" points="268,-1080.5 268,-1163.5 782,-1163.5 782,-1080.5 268,-1080.5"/>
<polygon fill="black" stroke="transparent" points="270,-1121 270,-1161 780,-1161 780,-1121 270,-1121"/>
<polygon fill="none" stroke="black" points="270,-1121 270,-1161 780,-1161 780,-1121 270,-1121"/>
<text text-anchor="start" x="346.5" y="-1138.2" font-family="Helvetica,sans-Serif" font-weight="bold" font-size="16.00" fill="white">batch_normalization</text>
<text text-anchor="start" x="528.5" y="-1138.2" font-family="Helvetica,sans-Serif" font-size="16.00" fill="white"> (BatchNormalization)</text>
<polygon fill="white" stroke="transparent" points="270,-1082 270,-1119 518,-1119 518,-1082 270,-1082"/>
<polygon fill="none" stroke="black" points="270,-1082 270,-1119 518,-1119 518,-1082 270,-1082"/>
<text text-anchor="start" x="281" y="-1097.8" font-family="Helvetica,sans-Serif" font-size="14.00">Input shape: </text>
<text text-anchor="start" x="374" y="-1097.8" font-family="Helvetica,sans-Serif" font-weight="bold" font-size="14.00">(None, 22050, 1)</text>
<polygon fill="white" stroke="transparent" points="520,-1082 520,-1119 780,-1119 780,-1082 520,-1082"/>
<polygon fill="none" stroke="black" points="520,-1082 520,-1119 780,-1119 780,-1082 520,-1082"/>
<text text-anchor="start" x="531" y="-1097.8" font-family="Helvetica,sans-Serif" font-size="14.00">Output shape: </text>
<text text-anchor="start" x="636" y="-1097.8" font-family="Helvetica,sans-Serif" font-weight="bold" font-size="14.00">(None, 22050, 1)</text>
</g>
<!-- 140078762657232&#45;&gt;140078762660688 -->
<g id="edge1" class="edge">
<title>140078762657232&#45;&gt;140078762660688</title>
<path fill="none" stroke="black" stroke-width="2" d="M525,-1200.37C525,-1200.37 525,-1173.56 525,-1173.56"/>
<polygon fill="black" stroke="black" stroke-width="2" points="528.5,-1173.56 525,-1163.56 521.5,-1173.56 528.5,-1173.56"/>
</g>
<!-- 140078762654352 -->
<g id="node3" class="node">
<title>140078762654352</title>
<polygon fill="none" stroke="black" points="268,-960.5 268,-1043.5 782,-1043.5 782,-960.5 268,-960.5"/>
<polygon fill="black" stroke="transparent" points="268,-960.5 268,-1043.5 782,-1043.5 782,-960.5 268,-960.5"/>
<polygon fill="black" stroke="transparent" points="270,-1001 270,-1041 780,-1041 780,-1001 270,-1001"/>
<polygon fill="none" stroke="black" points="270,-1001 270,-1041 780,-1041 780,-1001 270,-1001"/>
<text text-anchor="start" x="447.5" y="-1018.2" font-family="Helvetica,sans-Serif" font-weight="bold" font-size="16.00" fill="white">dropout</text>
<text text-anchor="start" x="520.5" y="-1018.2" font-family="Helvetica,sans-Serif" font-size="16.00" fill="white"> (Dropout)</text>
<polygon fill="white" stroke="transparent" points="270,-962 270,-999 518,-999 518,-962 270,-962"/>
<polygon fill="none" stroke="black" points="270,-962 270,-999 518,-999 518,-962 270,-962"/>
<text text-anchor="start" x="281" y="-977.8" font-family="Helvetica,sans-Serif" font-size="14.00">Input shape: </text>
<text text-anchor="start" x="374" y="-977.8" font-family="Helvetica,sans-Serif" font-weight="bold" font-size="14.00">(None, 22050, 1)</text>
<polygon fill="white" stroke="transparent" points="520,-962 520,-999 780,-999 780,-962 520,-962"/>
<polygon fill="none" stroke="black" points="520,-962 520,-999 780,-999 780,-962 520,-962"/>
<text text-anchor="start" x="531" y="-977.8" font-family="Helvetica,sans-Serif" font-size="14.00">Output shape: </text>
<text text-anchor="start" x="636" y="-977.8" font-family="Helvetica,sans-Serif" font-weight="bold" font-size="14.00">(None, 22050, 1)</text>
</g>
<!-- 140078762660688&#45;&gt;140078762654352 -->
<g id="edge2" class="edge">
<title>140078762660688&#45;&gt;140078762654352</title>
<path fill="none" stroke="black" stroke-width="2" d="M525,-1080.37C525,-1080.37 525,-1053.56 525,-1053.56"/>
<polygon fill="black" stroke="black" stroke-width="2" points="528.5,-1053.56 525,-1043.56 521.5,-1053.56 528.5,-1053.56"/>
</g>
<!-- 140078762951376 -->
<g id="node4" class="node">
<title>140078762951376</title>
<polygon fill="none" stroke="black" points="0,-840.5 0,-923.5 514,-923.5 514,-840.5 0,-840.5"/>
<polygon fill="black" stroke="transparent" points="0,-840.5 0,-923.5 514,-923.5 514,-840.5 0,-840.5"/>
<polygon fill="black" stroke="transparent" points="2,-881 2,-921 512,-921 512,-881 2,-881"/>
<polygon fill="none" stroke="black" points="2,-881 2,-921 512,-921 512,-881 2,-881"/>
<text text-anchor="start" x="183" y="-898.2" font-family="Helvetica,sans-Serif" font-weight="bold" font-size="16.00" fill="white">conv1d</text>
<text text-anchor="start" x="249" y="-898.2" font-family="Helvetica,sans-Serif" font-size="16.00" fill="white"> (Conv1D)</text>
<polygon fill="white" stroke="transparent" points="2,-842 2,-879 250,-879 250,-842 2,-842"/>
<polygon fill="none" stroke="black" points="2,-842 2,-879 250,-879 250,-842 2,-842"/>
<text text-anchor="start" x="13" y="-857.8" font-family="Helvetica,sans-Serif" font-size="14.00">Input shape: </text>
<text text-anchor="start" x="106" y="-857.8" font-family="Helvetica,sans-Serif" font-weight="bold" font-size="14.00">(None, 22050, 1)</text>
<polygon fill="white" stroke="transparent" points="252,-842 252,-879 512,-879 512,-842 252,-842"/>
<polygon fill="none" stroke="black" points="252,-842 252,-879 512,-879 512,-842 252,-842"/>
<text text-anchor="start" x="263" y="-857.8" font-family="Helvetica,sans-Serif" font-size="14.00">Output shape: </text>
<text text-anchor="start" x="368" y="-857.8" font-family="Helvetica,sans-Serif" font-weight="bold" font-size="14.00">(None, 22046, 2)</text>
</g>
<!-- 140078762654352&#45;&gt;140078762951376 -->
<g id="edge3" class="edge">
<title>140078762654352&#45;&gt;140078762951376</title>
<path fill="none" stroke="black" stroke-width="2" d="M391,-960.37C391,-960.37 391,-933.56 391,-933.56"/>
<polygon fill="black" stroke="black" stroke-width="2" points="394.5,-933.56 391,-923.56 387.5,-933.56 394.5,-933.56"/>
</g>
<!-- 140078840780816 -->
<g id="node5" class="node">
<title>140078840780816</title>
<polygon fill="none" stroke="black" points="532,-840.5 532,-923.5 1056,-923.5 1056,-840.5 532,-840.5"/>
<polygon fill="black" stroke="transparent" points="532,-840.5 532,-923.5 1056,-923.5 1056,-840.5 532,-840.5"/>
<polygon fill="black" stroke="transparent" points="534,-881 534,-921 1054,-921 1054,-881 534,-881"/>
<polygon fill="none" stroke="black" points="534,-881 534,-921 1054,-921 1054,-881 534,-881"/>
<text text-anchor="start" x="710.5" y="-898.2" font-family="Helvetica,sans-Serif" font-weight="bold" font-size="16.00" fill="white">conv1d_2</text>
<text text-anchor="start" x="795.5" y="-898.2" font-family="Helvetica,sans-Serif" font-size="16.00" fill="white"> (Conv1D)</text>
<polygon fill="white" stroke="transparent" points="534,-842 534,-879 782,-879 782,-842 534,-842"/>
<polygon fill="none" stroke="black" points="534,-842 534,-879 782,-879 782,-842 534,-842"/>
<text text-anchor="start" x="545" y="-857.8" font-family="Helvetica,sans-Serif" font-size="14.00">Input shape: </text>
<text text-anchor="start" x="638" y="-857.8" font-family="Helvetica,sans-Serif" font-weight="bold" font-size="14.00">(None, 22050, 1)</text>
<polygon fill="white" stroke="transparent" points="784,-842 784,-879 1054,-879 1054,-842 784,-842"/>
<polygon fill="none" stroke="black" points="784,-842 784,-879 1054,-879 1054,-842 784,-842"/>
<text text-anchor="start" x="795" y="-857.8" font-family="Helvetica,sans-Serif" font-size="14.00">Output shape: </text>
<text text-anchor="start" x="900" y="-857.8" font-family="Helvetica,sans-Serif" font-weight="bold" font-size="14.00">(None, 21923, 16)</text>
</g>
<!-- 140078762654352&#45;&gt;140078840780816 -->
<g id="edge4" class="edge">
<title>140078762654352&#45;&gt;140078840780816</title>
<path fill="none" stroke="black" stroke-width="2" d="M657,-960.37C657,-960.37 657,-933.56 657,-933.56"/>
<polygon fill="black" stroke="black" stroke-width="2" points="660.5,-933.56 657,-923.56 653.5,-933.56 660.5,-933.56"/>
</g>
<!-- 140079877563472 -->
<g id="node6" class="node">
<title>140079877563472</title>
<polygon fill="none" stroke="black" points="6.5,-720.5 6.5,-803.5 511.5,-803.5 511.5,-720.5 6.5,-720.5"/>
<polygon fill="black" stroke="transparent" points="6.5,-720.5 6.5,-803.5 511.5,-803.5 511.5,-720.5 6.5,-720.5"/>
<polygon fill="black" stroke="transparent" points="9,-761 9,-801 510,-801 510,-761 9,-761"/>
<polygon fill="none" stroke="black" points="9,-761 9,-801 510,-801 510,-761 9,-761"/>
<text text-anchor="start" x="125.5" y="-778.2" font-family="Helvetica,sans-Serif" font-weight="bold" font-size="16.00" fill="white">max_pooling1d</text>
<text text-anchor="start" x="261.5" y="-778.2" font-family="Helvetica,sans-Serif" font-size="16.00" fill="white"> (MaxPooling1D)</text>
<polygon fill="white" stroke="transparent" points="9,-722 9,-759 257,-759 257,-722 9,-722"/>
<polygon fill="none" stroke="black" points="9,-722 9,-759 257,-759 257,-722 9,-722"/>
<text text-anchor="start" x="20" y="-737.8" font-family="Helvetica,sans-Serif" font-size="14.00">Input shape: </text>
<text text-anchor="start" x="113" y="-737.8" font-family="Helvetica,sans-Serif" font-weight="bold" font-size="14.00">(None, 22046, 2)</text>
<polygon fill="white" stroke="transparent" points="259,-722 259,-759 510,-759 510,-722 259,-722"/>
<polygon fill="none" stroke="black" points="259,-722 259,-759 510,-759 510,-722 259,-722"/>
<text text-anchor="start" x="270" y="-737.8" font-family="Helvetica,sans-Serif" font-size="14.00">Output shape: </text>
<text text-anchor="start" x="375" y="-737.8" font-family="Helvetica,sans-Serif" font-weight="bold" font-size="14.00">(None, 7348, 2)</text>
</g>
<!-- 140078762951376&#45;&gt;140079877563472 -->
<g id="edge5" class="edge">
<title>140078762951376&#45;&gt;140079877563472</title>
<path fill="none" stroke="black" stroke-width="2" d="M259,-840.37C259,-840.37 259,-813.56 259,-813.56"/>
<polygon fill="black" stroke="black" stroke-width="2" points="262.5,-813.56 259,-803.56 255.5,-813.56 262.5,-813.56"/>
</g>
<!-- 140079877488144 -->
<g id="node7" class="node">
<title>140079877488144</title>
<polygon fill="none" stroke="black" points="531,-720.5 531,-803.5 1055,-803.5 1055,-720.5 531,-720.5"/>
<polygon fill="black" stroke="transparent" points="531,-720.5 531,-803.5 1055,-803.5 1055,-720.5 531,-720.5"/>
<polygon fill="black" stroke="transparent" points="533,-761 533,-801 1053,-801 1053,-761 533,-761"/>
<polygon fill="none" stroke="black" points="533,-761 533,-801 1053,-801 1053,-761 533,-761"/>
<text text-anchor="start" x="649.5" y="-778.2" font-family="Helvetica,sans-Serif" font-weight="bold" font-size="16.00" fill="white">max_pooling1d_2</text>
<text text-anchor="start" x="804.5" y="-778.2" font-family="Helvetica,sans-Serif" font-size="16.00" fill="white"> (MaxPooling1D)</text>
<polygon fill="white" stroke="transparent" points="533,-722 533,-759 791,-759 791,-722 533,-722"/>
<polygon fill="none" stroke="black" points="533,-722 533,-759 791,-759 791,-722 533,-722"/>
<text text-anchor="start" x="544" y="-737.8" font-family="Helvetica,sans-Serif" font-size="14.00">Input shape: </text>
<text text-anchor="start" x="637" y="-737.8" font-family="Helvetica,sans-Serif" font-weight="bold" font-size="14.00">(None, 21923, 16)</text>
<polygon fill="white" stroke="transparent" points="793,-722 793,-759 1053,-759 1053,-722 793,-722"/>
<polygon fill="none" stroke="black" points="793,-722 793,-759 1053,-759 1053,-722 793,-722"/>
<text text-anchor="start" x="804" y="-737.8" font-family="Helvetica,sans-Serif" font-size="14.00">Output shape: </text>
<text text-anchor="start" x="909" y="-737.8" font-family="Helvetica,sans-Serif" font-weight="bold" font-size="14.00">(None, 4384, 16)</text>
</g>
<!-- 140078840780816&#45;&gt;140079877488144 -->
<g id="edge6" class="edge">
<title>140078840780816&#45;&gt;140079877488144</title>
<path fill="none" stroke="black" stroke-width="2" d="M793.5,-840.37C793.5,-840.37 793.5,-813.56 793.5,-813.56"/>
<polygon fill="black" stroke="black" stroke-width="2" points="797,-813.56 793.5,-803.56 790,-813.56 797,-813.56"/>
</g>
<!-- 140078762960976 -->
<g id="node8" class="node">
<title>140078762960976</title>
<polygon fill="none" stroke="black" points="18,-600.5 18,-683.5 514,-683.5 514,-600.5 18,-600.5"/>
<polygon fill="black" stroke="transparent" points="18,-600.5 18,-683.5 514,-683.5 514,-600.5 18,-600.5"/>
<polygon fill="black" stroke="transparent" points="20,-641 20,-681 512,-681 512,-641 20,-641"/>
<polygon fill="none" stroke="black" points="20,-641 20,-681 512,-681 512,-641 20,-641"/>
<text text-anchor="start" x="182.5" y="-658.2" font-family="Helvetica,sans-Serif" font-weight="bold" font-size="16.00" fill="white">conv1d_1</text>
<text text-anchor="start" x="267.5" y="-658.2" font-family="Helvetica,sans-Serif" font-size="16.00" fill="white"> (Conv1D)</text>
<polygon fill="white" stroke="transparent" points="20,-602 20,-639 259,-639 259,-602 20,-602"/>
<polygon fill="none" stroke="black" points="20,-602 20,-639 259,-639 259,-602 20,-602"/>
<text text-anchor="start" x="31" y="-617.8" font-family="Helvetica,sans-Serif" font-size="14.00">Input shape: </text>
<text text-anchor="start" x="124" y="-617.8" font-family="Helvetica,sans-Serif" font-weight="bold" font-size="14.00">(None, 7348, 2)</text>
<polygon fill="white" stroke="transparent" points="261,-602 261,-639 512,-639 512,-602 261,-602"/>
<polygon fill="none" stroke="black" points="261,-602 261,-639 512,-639 512,-602 261,-602"/>
<text text-anchor="start" x="272" y="-617.8" font-family="Helvetica,sans-Serif" font-size="14.00">Output shape: </text>
<text text-anchor="start" x="377" y="-617.8" font-family="Helvetica,sans-Serif" font-weight="bold" font-size="14.00">(None, 452, 16)</text>
</g>
<!-- 140079877563472&#45;&gt;140078762960976 -->
<g id="edge7" class="edge">
<title>140079877563472&#45;&gt;140078762960976</title>
<path fill="none" stroke="black" stroke-width="2" d="M264.75,-720.37C264.75,-720.37 264.75,-693.56 264.75,-693.56"/>
<polygon fill="black" stroke="black" stroke-width="2" points="268.25,-693.56 264.75,-683.56 261.25,-693.56 268.25,-693.56"/>
</g>
<!-- 140078896155408 -->
<g id="node9" class="node">
<title>140078896155408</title>
<polygon fill="none" stroke="black" points="536.5,-600.5 536.5,-683.5 1041.5,-683.5 1041.5,-600.5 536.5,-600.5"/>
<polygon fill="black" stroke="transparent" points="536.5,-600.5 536.5,-683.5 1041.5,-683.5 1041.5,-600.5 536.5,-600.5"/>
<polygon fill="black" stroke="transparent" points="539,-641 539,-681 1040,-681 1040,-641 539,-641"/>
<polygon fill="none" stroke="black" points="539,-641 539,-681 1040,-681 1040,-641 539,-641"/>
<text text-anchor="start" x="706" y="-658.2" font-family="Helvetica,sans-Serif" font-weight="bold" font-size="16.00" fill="white">conv1d_3</text>
<text text-anchor="start" x="791" y="-658.2" font-family="Helvetica,sans-Serif" font-size="16.00" fill="white"> (Conv1D)</text>
<polygon fill="white" stroke="transparent" points="539,-602 539,-639 787,-639 787,-602 539,-602"/>
<polygon fill="none" stroke="black" points="539,-602 539,-639 787,-639 787,-602 539,-602"/>
<text text-anchor="start" x="550" y="-617.8" font-family="Helvetica,sans-Serif" font-size="14.00">Input shape: </text>
<text text-anchor="start" x="643" y="-617.8" font-family="Helvetica,sans-Serif" font-weight="bold" font-size="14.00">(None, 4384, 16)</text>
<polygon fill="white" stroke="transparent" points="789,-602 789,-639 1040,-639 1040,-602 789,-602"/>
<polygon fill="none" stroke="black" points="789,-602 789,-639 1040,-639 1040,-602 789,-602"/>
<text text-anchor="start" x="800" y="-617.8" font-family="Helvetica,sans-Serif" font-size="14.00">Output shape: </text>
<text text-anchor="start" x="905" y="-617.8" font-family="Helvetica,sans-Serif" font-weight="bold" font-size="14.00">(None, 259, 32)</text>
</g>
<!-- 140079877488144&#45;&gt;140078896155408 -->
<g id="edge8" class="edge">
<title>140079877488144&#45;&gt;140078896155408</title>
<path fill="none" stroke="black" stroke-width="2" d="M789,-720.37C789,-720.37 789,-693.56 789,-693.56"/>
<polygon fill="black" stroke="black" stroke-width="2" points="792.5,-693.56 789,-683.56 785.5,-693.56 792.5,-693.56"/>
</g>
<!-- 140078762966160 -->
<g id="node10" class="node">
<title>140078762966160</title>
<polygon fill="none" stroke="black" points="30,-480.5 30,-563.5 516,-563.5 516,-480.5 30,-480.5"/>
<polygon fill="black" stroke="transparent" points="30,-480.5 30,-563.5 516,-563.5 516,-480.5 30,-480.5"/>
<polygon fill="black" stroke="transparent" points="32,-521 32,-561 514,-561 514,-521 32,-521"/>
<polygon fill="none" stroke="black" points="32,-521 32,-561 514,-561 514,-521 32,-521"/>
<text text-anchor="start" x="129.5" y="-538.2" font-family="Helvetica,sans-Serif" font-weight="bold" font-size="16.00" fill="white">max_pooling1d_1</text>
<text text-anchor="start" x="284.5" y="-538.2" font-family="Helvetica,sans-Serif" font-size="16.00" fill="white"> (MaxPooling1D)</text>
<polygon fill="white" stroke="transparent" points="32,-482 32,-519 271,-519 271,-482 32,-482"/>
<polygon fill="none" stroke="black" points="32,-482 32,-519 271,-519 271,-482 32,-482"/>
<text text-anchor="start" x="43" y="-497.8" font-family="Helvetica,sans-Serif" font-size="14.00">Input shape: </text>
<text text-anchor="start" x="136" y="-497.8" font-family="Helvetica,sans-Serif" font-weight="bold" font-size="14.00">(None, 452, 16)</text>
<polygon fill="white" stroke="transparent" points="273,-482 273,-519 514,-519 514,-482 273,-482"/>
<polygon fill="none" stroke="black" points="273,-482 273,-519 514,-519 514,-482 273,-482"/>
<text text-anchor="start" x="284" y="-497.8" font-family="Helvetica,sans-Serif" font-size="14.00">Output shape: </text>
<text text-anchor="start" x="389" y="-497.8" font-family="Helvetica,sans-Serif" font-weight="bold" font-size="14.00">(None, 28, 16)</text>
</g>
<!-- 140078762960976&#45;&gt;140078762966160 -->
<g id="edge9" class="edge">
<title>140078762960976&#45;&gt;140078762966160</title>
<path fill="none" stroke="black" stroke-width="2" d="M272,-600.37C272,-600.37 272,-573.56 272,-573.56"/>
<polygon fill="black" stroke="black" stroke-width="2" points="275.5,-573.56 272,-563.56 268.5,-573.56 275.5,-573.56"/>
</g>
<!-- 140078762954064 -->
<g id="node11" class="node">
<title>140078762954064</title>
<polygon fill="none" stroke="black" points="540,-480.5 540,-563.5 1026,-563.5 1026,-480.5 540,-480.5"/>
<polygon fill="black" stroke="transparent" points="540,-480.5 540,-563.5 1026,-563.5 1026,-480.5 540,-480.5"/>
<polygon fill="black" stroke="transparent" points="542,-521 542,-561 1024,-561 1024,-521 542,-521"/>
<polygon fill="none" stroke="black" points="542,-521 542,-561 1024,-561 1024,-521 542,-521"/>
<text text-anchor="start" x="639.5" y="-538.2" font-family="Helvetica,sans-Serif" font-weight="bold" font-size="16.00" fill="white">max_pooling1d_3</text>
<text text-anchor="start" x="794.5" y="-538.2" font-family="Helvetica,sans-Serif" font-size="16.00" fill="white"> (MaxPooling1D)</text>
<polygon fill="white" stroke="transparent" points="542,-482 542,-519 781,-519 781,-482 542,-482"/>
<polygon fill="none" stroke="black" points="542,-482 542,-519 781,-519 781,-482 542,-482"/>
<text text-anchor="start" x="553" y="-497.8" font-family="Helvetica,sans-Serif" font-size="14.00">Input shape: </text>
<text text-anchor="start" x="646" y="-497.8" font-family="Helvetica,sans-Serif" font-weight="bold" font-size="14.00">(None, 259, 32)</text>
<polygon fill="white" stroke="transparent" points="783,-482 783,-519 1024,-519 1024,-482 783,-482"/>
<polygon fill="none" stroke="black" points="783,-482 783,-519 1024,-519 1024,-482 783,-482"/>
<text text-anchor="start" x="794" y="-497.8" font-family="Helvetica,sans-Serif" font-size="14.00">Output shape: </text>
<text text-anchor="start" x="899" y="-497.8" font-family="Helvetica,sans-Serif" font-weight="bold" font-size="14.00">(None, 51, 32)</text>
</g>
<!-- 140078896155408&#45;&gt;140078762954064 -->
<g id="edge10" class="edge">
<title>140078896155408&#45;&gt;140078762954064</title>
<path fill="none" stroke="black" stroke-width="2" d="M783,-600.37C783,-600.37 783,-573.56 783,-573.56"/>
<polygon fill="black" stroke="black" stroke-width="2" points="786.5,-573.56 783,-563.56 779.5,-573.56 786.5,-573.56"/>
</g>
<!-- 140078762993424 -->
<g id="node12" class="node">
<title>140078762993424</title>
<polygon fill="none" stroke="black" points="50,-360.5 50,-443.5 516,-443.5 516,-360.5 50,-360.5"/>
<polygon fill="black" stroke="transparent" points="50,-360.5 50,-443.5 516,-443.5 516,-360.5 50,-360.5"/>
<polygon fill="black" stroke="transparent" points="52,-401 52,-441 514,-441 514,-401 52,-401"/>
<polygon fill="none" stroke="black" points="52,-401 52,-441 514,-441 514,-401 52,-401"/>
<text text-anchor="start" x="208.5" y="-418.2" font-family="Helvetica,sans-Serif" font-weight="bold" font-size="16.00" fill="white">lambda</text>
<text text-anchor="start" x="274.5" y="-418.2" font-family="Helvetica,sans-Serif" font-size="16.00" fill="white"> (Lambda)</text>
<polygon fill="white" stroke="transparent" points="52,-362 52,-399 281,-399 281,-362 52,-362"/>
<polygon fill="none" stroke="black" points="52,-362 52,-399 281,-399 281,-362 52,-362"/>
<text text-anchor="start" x="63" y="-377.8" font-family="Helvetica,sans-Serif" font-size="14.00">Input shape: </text>
<text text-anchor="start" x="156" y="-377.8" font-family="Helvetica,sans-Serif" font-weight="bold" font-size="14.00">(None, 28, 16)</text>
<polygon fill="white" stroke="transparent" points="283,-362 283,-399 514,-399 514,-362 283,-362"/>
<polygon fill="none" stroke="black" points="283,-362 283,-399 514,-399 514,-362 283,-362"/>
<text text-anchor="start" x="294" y="-377.8" font-family="Helvetica,sans-Serif" font-size="14.00">Output shape: </text>
<text text-anchor="start" x="399" y="-377.8" font-family="Helvetica,sans-Serif" font-weight="bold" font-size="14.00">(None, 28, 1)</text>
</g>
<!-- 140078762966160&#45;&gt;140078762993424 -->
<g id="edge11" class="edge">
<title>140078762966160&#45;&gt;140078762993424</title>
<path fill="none" stroke="black" stroke-width="2" d="M283,-480.37C283,-480.37 283,-453.56 283,-453.56"/>
<polygon fill="black" stroke="black" stroke-width="2" points="286.5,-453.56 283,-443.56 279.5,-453.56 286.5,-453.56"/>
</g>
<!-- 140078763142032 -->
<g id="node13" class="node">
<title>140078763142032</title>
<polygon fill="none" stroke="black" points="542,-360.5 542,-443.5 1008,-443.5 1008,-360.5 542,-360.5"/>
<polygon fill="black" stroke="transparent" points="542,-360.5 542,-443.5 1008,-443.5 1008,-360.5 542,-360.5"/>
<polygon fill="black" stroke="transparent" points="544,-401 544,-441 1006,-441 1006,-401 544,-401"/>
<polygon fill="none" stroke="black" points="544,-401 544,-441 1006,-441 1006,-401 544,-401"/>
<text text-anchor="start" x="691" y="-418.2" font-family="Helvetica,sans-Serif" font-weight="bold" font-size="16.00" fill="white">lambda_1</text>
<text text-anchor="start" x="776" y="-418.2" font-family="Helvetica,sans-Serif" font-size="16.00" fill="white"> (Lambda)</text>
<polygon fill="white" stroke="transparent" points="544,-362 544,-399 773,-399 773,-362 544,-362"/>
<polygon fill="none" stroke="black" points="544,-362 544,-399 773,-399 773,-362 544,-362"/>
<text text-anchor="start" x="555" y="-377.8" font-family="Helvetica,sans-Serif" font-size="14.00">Input shape: </text>
<text text-anchor="start" x="648" y="-377.8" font-family="Helvetica,sans-Serif" font-weight="bold" font-size="14.00">(None, 51, 32)</text>
<polygon fill="white" stroke="transparent" points="775,-362 775,-399 1006,-399 1006,-362 775,-362"/>
<polygon fill="none" stroke="black" points="775,-362 775,-399 1006,-399 1006,-362 775,-362"/>
<text text-anchor="start" x="786" y="-377.8" font-family="Helvetica,sans-Serif" font-size="14.00">Output shape: </text>
<text text-anchor="start" x="891" y="-377.8" font-family="Helvetica,sans-Serif" font-weight="bold" font-size="14.00">(None, 51, 1)</text>
</g>
<!-- 140078762954064&#45;&gt;140078763142032 -->
<g id="edge12" class="edge">
<title>140078762954064&#45;&gt;140078763142032</title>
<path fill="none" stroke="black" stroke-width="2" d="M775,-480.37C775,-480.37 775,-453.56 775,-453.56"/>
<polygon fill="black" stroke="black" stroke-width="2" points="778.5,-453.56 775,-443.56 771.5,-453.56 778.5,-453.56"/>
</g>
<!-- 140078762868048 -->
<g id="node14" class="node">
<title>140078762868048</title>
<polygon fill="none" stroke="black" points="78.5,-240.5 78.5,-323.5 515.5,-323.5 515.5,-240.5 78.5,-240.5"/>
<polygon fill="black" stroke="transparent" points="78.5,-240.5 78.5,-323.5 515.5,-323.5 515.5,-240.5 78.5,-240.5"/>
<polygon fill="black" stroke="transparent" points="81,-281 81,-321 514,-321 514,-281 81,-281"/>
<polygon fill="none" stroke="black" points="81,-281 81,-321 514,-321 514,-281 81,-281"/>
<text text-anchor="start" x="231" y="-298.2" font-family="Helvetica,sans-Serif" font-weight="bold" font-size="16.00" fill="white">flatten</text>
<text text-anchor="start" x="291" y="-298.2" font-family="Helvetica,sans-Serif" font-size="16.00" fill="white"> (Flatten)</text>
<polygon fill="white" stroke="transparent" points="81,-242 81,-279 300,-279 300,-242 81,-242"/>
<polygon fill="none" stroke="black" points="81,-242 81,-279 300,-279 300,-242 81,-242"/>
<text text-anchor="start" x="92" y="-257.8" font-family="Helvetica,sans-Serif" font-size="14.00">Input shape: </text>
<text text-anchor="start" x="185" y="-257.8" font-family="Helvetica,sans-Serif" font-weight="bold" font-size="14.00">(None, 28, 1)</text>
<polygon fill="white" stroke="transparent" points="302,-242 302,-279 514,-279 514,-242 302,-242"/>
<polygon fill="none" stroke="black" points="302,-242 302,-279 514,-279 514,-242 302,-242"/>
<text text-anchor="start" x="313" y="-257.8" font-family="Helvetica,sans-Serif" font-size="14.00">Output shape: </text>
<text text-anchor="start" x="418" y="-257.8" font-family="Helvetica,sans-Serif" font-weight="bold" font-size="14.00">(None, 28)</text>
</g>
<!-- 140078762993424&#45;&gt;140078762868048 -->
<g id="edge13" class="edge">
<title>140078762993424&#45;&gt;140078762868048</title>
<path fill="none" stroke="black" stroke-width="2" d="M297,-360.37C297,-360.37 297,-333.56 297,-333.56"/>
<polygon fill="black" stroke="black" stroke-width="2" points="300.5,-333.56 297,-323.56 293.5,-333.56 300.5,-333.56"/>
</g>
<!-- 140078842742928 -->
<g id="node15" class="node">
<title>140078842742928</title>
<polygon fill="none" stroke="black" points="544.5,-240.5 544.5,-323.5 981.5,-323.5 981.5,-240.5 544.5,-240.5"/>
<polygon fill="black" stroke="transparent" points="544.5,-240.5 544.5,-323.5 981.5,-323.5 981.5,-240.5 544.5,-240.5"/>
<polygon fill="black" stroke="transparent" points="547,-281 547,-321 980,-321 980,-281 547,-281"/>
<polygon fill="none" stroke="black" points="547,-281 547,-321 980,-321 980,-281 547,-281"/>
<text text-anchor="start" x="687.5" y="-298.2" font-family="Helvetica,sans-Serif" font-weight="bold" font-size="16.00" fill="white">flatten_1</text>
<text text-anchor="start" x="766.5" y="-298.2" font-family="Helvetica,sans-Serif" font-size="16.00" fill="white"> (Flatten)</text>
<polygon fill="white" stroke="transparent" points="547,-242 547,-279 766,-279 766,-242 547,-242"/>
<polygon fill="none" stroke="black" points="547,-242 547,-279 766,-279 766,-242 547,-242"/>
<text text-anchor="start" x="558" y="-257.8" font-family="Helvetica,sans-Serif" font-size="14.00">Input shape: </text>
<text text-anchor="start" x="651" y="-257.8" font-family="Helvetica,sans-Serif" font-weight="bold" font-size="14.00">(None, 51, 1)</text>
<polygon fill="white" stroke="transparent" points="768,-242 768,-279 980,-279 980,-242 768,-242"/>
<polygon fill="none" stroke="black" points="768,-242 768,-279 980,-279 980,-242 768,-242"/>
<text text-anchor="start" x="779" y="-257.8" font-family="Helvetica,sans-Serif" font-size="14.00">Output shape: </text>
<text text-anchor="start" x="884" y="-257.8" font-family="Helvetica,sans-Serif" font-weight="bold" font-size="14.00">(None, 51)</text>
</g>
<!-- 140078763142032&#45;&gt;140078842742928 -->
<g id="edge14" class="edge">
<title>140078763142032&#45;&gt;140078842742928</title>
<path fill="none" stroke="black" stroke-width="2" d="M763,-360.37C763,-360.37 763,-333.56 763,-333.56"/>
<polygon fill="black" stroke="black" stroke-width="2" points="766.5,-333.56 763,-323.56 759.5,-333.56 766.5,-333.56"/>
</g>
<!-- 140078762987216 -->
<g id="node16" class="node">
<title>140078762987216</title>
<polygon fill="none" stroke="black" points="261.5,-120.5 261.5,-203.5 786.5,-203.5 786.5,-120.5 261.5,-120.5"/>
<polygon fill="black" stroke="transparent" points="261.5,-120.5 261.5,-203.5 786.5,-203.5 786.5,-120.5 261.5,-120.5"/>
<polygon fill="black" stroke="transparent" points="264,-161 264,-201 785,-201 785,-161 264,-161"/>
<polygon fill="none" stroke="black" points="264,-161 264,-201 785,-201 785,-161 264,-161"/>
<text text-anchor="start" x="409" y="-178.2" font-family="Helvetica,sans-Serif" font-weight="bold" font-size="16.00" fill="white">concatenate</text>
<text text-anchor="start" x="520" y="-178.2" font-family="Helvetica,sans-Serif" font-size="16.00" fill="white"> (Concatenate)</text>
<polygon fill="white" stroke="transparent" points="264,-122 264,-159 571,-159 571,-122 264,-122"/>
<polygon fill="none" stroke="black" points="264,-122 264,-159 571,-159 571,-122 264,-122"/>
<text text-anchor="start" x="275" y="-137.8" font-family="Helvetica,sans-Serif" font-size="14.00">Input shape: </text>
<text text-anchor="start" x="368" y="-137.8" font-family="Helvetica,sans-Serif" font-weight="bold" font-size="14.00">[(None, 28), (None, 51)]</text>
<polygon fill="white" stroke="transparent" points="573,-122 573,-159 785,-159 785,-122 573,-122"/>
<polygon fill="none" stroke="black" points="573,-122 573,-159 785,-159 785,-122 573,-122"/>
<text text-anchor="start" x="584" y="-137.8" font-family="Helvetica,sans-Serif" font-size="14.00">Output shape: </text>
<text text-anchor="start" x="689" y="-137.8" font-family="Helvetica,sans-Serif" font-weight="bold" font-size="14.00">(None, 79)</text>
</g>
<!-- 140078762868048&#45;&gt;140078762987216 -->
<g id="edge15" class="edge">
<title>140078762868048&#45;&gt;140078762987216</title>
<path fill="none" stroke="black" stroke-width="2" d="M388.5,-240.37C388.5,-240.37 388.5,-213.56 388.5,-213.56"/>
<polygon fill="black" stroke="black" stroke-width="2" points="392,-213.56 388.5,-203.56 385,-213.56 392,-213.56"/>
</g>
<!-- 140078842742928&#45;&gt;140078762987216 -->
<g id="edge16" class="edge">
<title>140078842742928&#45;&gt;140078762987216</title>
<path fill="none" stroke="black" stroke-width="2" d="M665.5,-240.37C665.5,-240.37 665.5,-213.56 665.5,-213.56"/>
<polygon fill="black" stroke="black" stroke-width="2" points="669,-213.56 665.5,-203.56 662,-213.56 669,-213.56"/>
</g>
<!-- 140078830063056 -->
<g id="node17" class="node">
<title>140078830063056</title>
<polygon fill="none" stroke="black" points="315,-0.5 315,-83.5 733,-83.5 733,-0.5 315,-0.5"/>
<polygon fill="black" stroke="transparent" points="315,-0.5 315,-83.5 733,-83.5 733,-0.5 315,-0.5"/>
<polygon fill="black" stroke="transparent" points="317,-41 317,-81 731,-81 731,-41 317,-41"/>
<polygon fill="none" stroke="black" points="317,-41 317,-81 731,-81 731,-41 317,-41"/>
<text text-anchor="start" x="429.5" y="-58.2" font-family="Helvetica,sans-Serif" font-weight="bold" font-size="16.00" fill="white">regressor</text>
<text text-anchor="start" x="517.5" y="-58.2" font-family="Helvetica,sans-Serif" font-size="16.00" fill="white"> (Functional)</text>
<polygon fill="white" stroke="transparent" points="317,-2 317,-39 517,-39 517,-2 317,-2"/>
<polygon fill="none" stroke="black" points="317,-2 317,-39 517,-39 517,-2 317,-2"/>
<text text-anchor="start" x="328" y="-17.8" font-family="Helvetica,sans-Serif" font-size="14.00">Input shape: </text>
<text text-anchor="start" x="421" y="-17.8" font-family="Helvetica,sans-Serif" font-weight="bold" font-size="14.00">(None, 79)</text>
<polygon fill="white" stroke="transparent" points="519,-2 519,-39 731,-39 731,-2 519,-2"/>
<polygon fill="none" stroke="black" points="519,-2 519,-39 731,-39 731,-2 519,-2"/>
<text text-anchor="start" x="530" y="-17.8" font-family="Helvetica,sans-Serif" font-size="14.00">Output shape: </text>
<text text-anchor="start" x="635" y="-17.8" font-family="Helvetica,sans-Serif" font-weight="bold" font-size="14.00">(None, 21)</text>
</g>
<!-- 140078762987216&#45;&gt;140078830063056 -->
<g id="edge17" class="edge">
<title>140078762987216&#45;&gt;140078830063056</title>
<path fill="none" stroke="black" stroke-width="2" d="M524,-120.37C524,-120.37 524,-93.56 524,-93.56"/>
<polygon fill="black" stroke="black" stroke-width="2" points="527.5,-93.56 524,-83.56 520.5,-93.56 527.5,-93.56"/>
</g>
</g>
</svg>
